<svg xmlns="http://www.w3.org/2000/svg" width="1400" height="500">
    <ellipse cx="490" cy="450" rx="100" ry="30" fill="black" opacity="0.3"/>
    <circle cx="500" cy="300" r="150" fill="orange"/>
    <circle cx="550" cy="270" r="60" fill="white"/>
    <circle cx="480" cy="270" r="60" fill="white"/>
    <circle cx="560" cy="270" r="10" fill="black"/>
    <circle cx="490" cy="270" r="10" fill="black"/>
    <circle cx="515" cy="330" r="15" fill="black"/>
    <ellipse cx="510" cy="380" rx="30" ry="15" fill="red"/>
    <polygon points="390,200 390,160 490,200" fill="orange"/>
    <polygon points="395,200 395,168 420,178" fill="black"/>
    <polygon points="600,200 570,168 610,160" fill="orange"/>
    <polygon points="597,190 576,172 603,167" fill="black"/>
    <ellipse cx="380" cy="200" rx="100" ry="30" transform="rotate(20 0 0)" fill="orange"/>
    <polygon points="200,285 240,280 230,315" fill="white"/>
</svg>